<?xml version="1.0" encoding="UTF-8"?>
<svg width="18px" height="18px" viewBox="0 0 18 18" version="1.1" xmlns="http://www.w3.org/2000/svg" xmlns:xlink="http://www.w3.org/1999/xlink">
    <!-- Generator: Sketch 44.1 (41455) - http://www.bohemiancoding.com/sketch -->
    <title>yuanweixuanzhong</title>
    <desc>Created with Sketch.</desc>
    <defs></defs>
    <g id="icon" stroke="none" stroke-width="1" fill="none" fill-rule="evenodd">
        <g id="Artboard" transform="translate(-303.000000, -273.000000)" fill-rule="nonzero" fill="#37ABFD">
            <path d="M312,287 C309.238576,287 307,284.761424 307,282 C307,279.238576 309.238576,277 312,277 C314.761424,277 317,279.238576 317,282 C317,284.761424 314.761424,287 312,287 Z M312,290 C316.418278,290 320,286.418278 320,282 C320,277.581722 316.418278,274 312,274 C307.581722,274 304,277.581722 304,282 C304,286.418278 307.581722,290 312,290 Z M312,291 C307.029437,291 303,286.970563 303,282 C303,277.029437 307.029437,273 312,273 C316.970563,273 321,277.029437 321,282 C321,286.970563 316.970563,291 312,291 Z" id="yuanweixuanzhong"></path>
        </g>
    </g>
</svg>