<?xml version="1.0" encoding="UTF-8"?>
<svg width="14px" height="14px" viewBox="0 0 14 14" version="1.1" xmlns="http://www.w3.org/2000/svg" xmlns:xlink="http://www.w3.org/1999/xlink">
    <!-- Generator: Sketch 44.1 (41455) - http://www.bohemiancoding.com/sketch -->
    <title>xuanzhong</title>
    <desc>Created with Sketch.</desc>
    <defs></defs>
    <g id="icon" stroke="none" stroke-width="1" fill="none" fill-rule="evenodd">
        <g id="Artboard" transform="translate(-226.000000, -253.000000)" fill="#37ABFD">
            <path d="M226,254.006845 C226,253.45078 226.449949,253 227.006845,253 L238.993155,253 C239.54922,253 240,253.449949 240,254.006845 L240,265.993155 C240,266.54922 239.550051,267 238.993155,267 L227.006845,267 C226.45078,267 226,266.550051 226,265.993155 L226,254.006845 Z M232.077038,262.780754 C232.234135,262.780754 232.391864,262.720275 232.512176,262.599951 L236.819988,258.274069 C237.060004,258.032812 237.060004,257.641922 236.819988,257.400664 C236.579352,257.158773 236.189716,257.158773 235.9497,257.400664 L232.077038,261.288912 L230.0503,259.254088 C229.810284,259.012806 229.420648,259.012806 229.180012,259.254088 C228.939996,259.495346 228.939996,259.886856 229.180012,260.128114 L231.641888,262.599951 C231.762213,262.720275 231.919309,262.780754 232.077038,262.780754 Z" id="xuanzhong"></path>
        </g>
    </g>
</svg>